<svg width="17" height="16" viewBox="0 0 17 16" fill="none" xmlns="http://www.w3.org/2000/svg">
<path d="M16.5887 3.27888C16.3249 2.63724 15.9446 2.0558 15.469 1.56709C14.9931 1.07693 14.4319 0.6874 13.816 0.419693C13.1774 0.140996 12.4925 -0.0016576 11.801 1.45314e-05C10.8309 1.45314e-05 9.88435 0.279111 9.0618 0.806293C8.86502 0.932404 8.67808 1.07092 8.50097 1.22184C8.32387 1.07092 8.13693 0.932404 7.94015 0.806293C7.1176 0.279111 6.17108 1.45314e-05 5.20094 1.45314e-05C4.50237 1.45314e-05 3.82544 0.140597 3.1859 0.419693C2.568 0.688453 2.01111 1.07505 1.53293 1.56709C1.05671 2.05524 0.676296 2.63683 0.413242 3.27888C0.139715 3.94665 0 4.65576 0 5.38554C0 6.07398 0.133812 6.79136 0.399467 7.52115C0.621831 8.13103 0.940617 8.76365 1.34796 9.40247C1.9934 10.4134 2.88089 11.4678 3.98286 12.5366C5.809 14.3084 7.61742 15.5323 7.69417 15.5819L8.16054 15.8961C8.36716 16.0346 8.63282 16.0346 8.83944 15.8961L9.30581 15.5819C9.38256 15.5302 11.189 14.3084 13.0171 12.5366C14.1191 11.4678 15.0066 10.4134 15.652 9.40247C16.0594 8.76365 16.3801 8.13103 16.6005 7.52115C16.8662 6.79136 17 6.07398 17 5.38554C17.0019 4.65576 16.8622 3.94665 16.5887 3.27888V3.27888Z" fill="#344B6E"/>
</svg>
