<svg width="139" height="97" viewBox="0 0 139 97" fill="none" xmlns="http://www.w3.org/2000/svg">
<path d="M22.1782 87H18.9932L6.18322 67.575V87H2.99822V62.57H6.18322L18.9932 81.96V62.57H22.1782V87ZM45.1076 76.675C45.1076 77.2817 45.0726 77.9233 45.0026 78.6H29.6726C29.7893 80.49 30.4309 81.9717 31.5976 83.045C32.7876 84.095 34.2226 84.62 35.9026 84.62C37.2793 84.62 38.4226 84.305 39.3326 83.675C40.2659 83.0217 40.9193 82.1583 41.2926 81.085H44.7226C44.2093 82.9283 43.1826 84.4333 41.6426 85.6C40.1026 86.7433 38.1893 87.315 35.9026 87.315C34.0826 87.315 32.4493 86.9067 31.0026 86.09C29.5793 85.2733 28.4593 84.1183 27.6426 82.625C26.8259 81.1083 26.4176 79.3583 26.4176 77.375C26.4176 75.3917 26.8143 73.6533 27.6076 72.16C28.4009 70.6667 29.5093 69.5233 30.9326 68.73C32.3793 67.9133 34.0359 67.505 35.9026 67.505C37.7226 67.505 39.3326 67.9017 40.7326 68.695C42.1326 69.4883 43.2059 70.585 43.9526 71.985C44.7226 73.3617 45.1076 74.925 45.1076 76.675ZM41.8176 76.01C41.8176 74.7967 41.5493 73.7583 41.0126 72.895C40.4759 72.0083 39.7409 71.3433 38.8076 70.9C37.8976 70.4333 36.8826 70.2 35.7626 70.2C34.1526 70.2 32.7759 70.7133 31.6326 71.74C30.5126 72.7667 29.8709 74.19 29.7076 76.01H41.8176ZM53.1967 70.445V81.75C53.1967 82.6833 53.395 83.3483 53.7917 83.745C54.1884 84.1183 54.8767 84.305 55.8567 84.305H58.2017V87H55.3317C53.5584 87 52.2284 86.5917 51.3417 85.775C50.455 84.9583 50.0117 83.6167 50.0117 81.75V70.445H47.5267V67.82H50.0117V62.99H53.1967V67.82H58.2017V70.445H53.1967ZM69.7957 87.245C68.1857 87.245 66.7391 86.965 65.4557 86.405C64.1957 85.8217 63.2041 85.0283 62.4807 84.025C61.7574 82.9983 61.3841 81.82 61.3607 80.49H64.7557C64.8724 81.6333 65.3391 82.6017 66.1557 83.395C66.9957 84.165 68.2091 84.55 69.7957 84.55C71.3124 84.55 72.5024 84.1767 73.3657 83.43C74.2524 82.66 74.6957 81.68 74.6957 80.49C74.6957 79.5567 74.4391 78.7983 73.9257 78.215C73.4124 77.6317 72.7707 77.1883 72.0007 76.885C71.2307 76.5817 70.1924 76.255 68.8857 75.905C67.2757 75.485 65.9807 75.065 65.0007 74.645C64.0441 74.225 63.2157 73.5717 62.5157 72.685C61.8391 71.775 61.5007 70.5617 61.5007 69.045C61.5007 67.715 61.8391 66.5367 62.5157 65.51C63.1924 64.4833 64.1374 63.69 65.3507 63.13C66.5874 62.57 67.9991 62.29 69.5857 62.29C71.8724 62.29 73.7391 62.8617 75.1857 64.005C76.6557 65.1483 77.4841 66.665 77.6707 68.555H74.1707C74.0541 67.6217 73.5641 66.805 72.7007 66.105C71.8374 65.3817 70.6941 65.02 69.2707 65.02C67.9407 65.02 66.8557 65.37 66.0157 66.07C65.1757 66.7467 64.7557 67.7033 64.7557 68.94C64.7557 69.8267 65.0007 70.55 65.4907 71.11C66.0041 71.67 66.6224 72.1017 67.3457 72.405C68.0924 72.685 69.1307 73.0117 70.4607 73.385C72.0707 73.8283 73.3657 74.2717 74.3457 74.715C75.3257 75.135 76.1657 75.8 76.8657 76.71C77.5657 77.5967 77.9157 78.81 77.9157 80.35C77.9157 81.54 77.6007 82.66 76.9707 83.71C76.3407 84.76 75.4074 85.6117 74.1707 86.265C72.9341 86.9183 71.4757 87.245 69.7957 87.245ZM86.4877 70.445V81.75C86.4877 82.6833 86.686 83.3483 87.0827 83.745C87.4794 84.1183 88.1677 84.305 89.1477 84.305H91.4927V87H88.6227C86.8494 87 85.5194 86.5917 84.6327 85.775C83.746 84.9583 83.3027 83.6167 83.3027 81.75V70.445H80.8177V67.82H83.3027V62.99H86.4877V67.82H91.4927V70.445H86.4877ZM112.362 67.82V87H109.177V84.165C108.57 85.145 107.718 85.915 106.622 86.475C105.548 87.0117 104.358 87.28 103.052 87.28C101.558 87.28 100.217 86.9767 99.0267 86.37C97.8367 85.74 96.8917 84.8067 96.1917 83.57C95.5151 82.3333 95.1767 80.8283 95.1767 79.055V67.82H98.3267V78.635C98.3267 80.525 98.8051 81.9833 99.7617 83.01C100.718 84.0133 102.025 84.515 103.682 84.515C105.385 84.515 106.727 83.99 107.707 82.94C108.687 81.89 109.177 80.3617 109.177 78.355V67.82H112.362ZM116.549 77.34C116.549 75.38 116.946 73.665 117.739 72.195C118.533 70.7017 119.618 69.5467 120.994 68.73C122.394 67.9133 123.958 67.505 125.684 67.505C127.178 67.505 128.566 67.855 129.849 68.555C131.133 69.2317 132.113 70.13 132.789 71.25V61.1H136.009V87H132.789V83.395C132.159 84.5383 131.226 85.4833 129.989 86.23C128.753 86.9533 127.306 87.315 125.649 87.315C123.946 87.315 122.394 86.895 120.994 86.055C119.618 85.215 118.533 84.0367 117.739 82.52C116.946 81.0033 116.549 79.2767 116.549 77.34ZM132.789 77.375C132.789 75.9283 132.498 74.6683 131.914 73.595C131.331 72.5217 130.538 71.705 129.534 71.145C128.554 70.5617 127.469 70.27 126.279 70.27C125.089 70.27 124.004 70.55 123.024 71.11C122.044 71.67 121.263 72.4867 120.679 73.56C120.096 74.6333 119.804 75.8933 119.804 77.34C119.804 78.81 120.096 80.0933 120.679 81.19C121.263 82.2633 122.044 83.0917 123.024 83.675C124.004 84.235 125.089 84.515 126.279 84.515C127.469 84.515 128.554 84.235 129.534 83.675C130.538 83.0917 131.331 82.2633 131.914 81.19C132.498 80.0933 132.789 78.8217 132.789 77.375Z" fill="#344B6E"/>
<circle cx="86.2105" cy="31.2632" r="5.03947" stroke="#344B6E" stroke-width="1.5"/>
<circle cx="86.2105" cy="15.0526" r="5.03947" stroke="#344B6E" stroke-width="1.5"/>
<circle cx="70" cy="5.78947" r="5.03947" stroke="#344B6E" stroke-width="1.5"/>
<circle cx="53.7895" cy="31.2632" r="5.03947" stroke="#344B6E" stroke-width="1.5"/>
<circle cx="53.7895" cy="15.0526" r="5.03947" stroke="#344B6E" stroke-width="1.5"/>
<circle cx="70" cy="40.5263" r="5.03947" stroke="#344B6E" stroke-width="1.5"/>
</svg>
