<svg width="130" height="45" viewBox="0 0 130 45" fill="none" xmlns="http://www.w3.org/2000/svg">
<path d="M62.959 30H61.139L53.819 18.9V30H51.999V16.04H53.819L61.139 27.12V16.04H62.959V30ZM76.0615 24.1C76.0615 24.4467 76.0415 24.8133 76.0015 25.2H67.2415C67.3082 26.28 67.6748 27.1267 68.3415 27.74C69.0215 28.34 69.8415 28.64 70.8015 28.64C71.5882 28.64 72.2415 28.46 72.7615 28.1C73.2948 27.7267 73.6682 27.2333 73.8815 26.62H75.8415C75.5482 27.6733 74.9615 28.5333 74.0815 29.2C73.2015 29.8533 72.1082 30.18 70.8015 30.18C69.7615 30.18 68.8282 29.9467 68.0015 29.48C67.1882 29.0133 66.5482 28.3533 66.0815 27.5C65.6148 26.6333 65.3815 25.6333 65.3815 24.5C65.3815 23.3667 65.6082 22.3733 66.0615 21.52C66.5148 20.6667 67.1482 20.0133 67.9615 19.56C68.7882 19.0933 69.7348 18.86 70.8015 18.86C71.8415 18.86 72.7615 19.0867 73.5615 19.54C74.3615 19.9933 74.9748 20.62 75.4015 21.42C75.8415 22.2067 76.0615 23.1 76.0615 24.1ZM74.1815 23.72C74.1815 23.0267 74.0282 22.4333 73.7215 21.94C73.4148 21.4333 72.9948 21.0533 72.4615 20.8C71.9415 20.5333 71.3615 20.4 70.7215 20.4C69.8015 20.4 69.0148 20.6933 68.3615 21.28C67.7215 21.8667 67.3548 22.68 67.2615 23.72H74.1815ZM80.6838 20.54V27C80.6838 27.5333 80.7972 27.9133 81.0238 28.14C81.2505 28.3533 81.6438 28.46 82.2038 28.46H83.5438V30H81.9038C80.8905 30 80.1305 29.7667 79.6238 29.3C79.1172 28.8333 78.8638 28.0667 78.8638 27V20.54H77.4438V19.04H78.8638V16.28H80.6838V19.04H83.5438V20.54H80.6838ZM90.169 30.14C89.249 30.14 88.4223 29.98 87.689 29.66C86.969 29.3267 86.4023 28.8733 85.989 28.3C85.5757 27.7133 85.3623 27.04 85.349 26.28H87.289C87.3557 26.9333 87.6223 27.4867 88.089 27.94C88.569 28.38 89.2623 28.6 90.169 28.6C91.0357 28.6 91.7157 28.3867 92.209 27.96C92.7157 27.52 92.969 26.96 92.969 26.28C92.969 25.7467 92.8223 25.3133 92.529 24.98C92.2357 24.6467 91.869 24.3933 91.429 24.22C90.989 24.0467 90.3957 23.86 89.649 23.66C88.729 23.42 87.989 23.18 87.429 22.94C86.8823 22.7 86.409 22.3267 86.009 21.82C85.6223 21.3 85.429 20.6067 85.429 19.74C85.429 18.98 85.6223 18.3067 86.009 17.72C86.3957 17.1333 86.9357 16.68 87.629 16.36C88.3357 16.04 89.1423 15.88 90.049 15.88C91.3557 15.88 92.4223 16.2067 93.249 16.86C94.089 17.5133 94.5623 18.38 94.669 19.46H92.669C92.6023 18.9267 92.3223 18.46 91.829 18.06C91.3357 17.6467 90.6823 17.44 89.869 17.44C89.109 17.44 88.489 17.64 88.009 18.04C87.529 18.4267 87.289 18.9733 87.289 19.68C87.289 20.1867 87.429 20.6 87.709 20.92C88.0023 21.24 88.3557 21.4867 88.769 21.66C89.1957 21.82 89.789 22.0067 90.549 22.22C91.469 22.4733 92.209 22.7267 92.769 22.98C93.329 23.22 93.809 23.6 94.209 24.12C94.609 24.6267 94.809 25.32 94.809 26.2C94.809 26.88 94.629 27.52 94.269 28.12C93.909 28.72 93.3757 29.2067 92.669 29.58C91.9623 29.9533 91.129 30.14 90.169 30.14ZM99.7073 20.54V27C99.7073 27.5333 99.8206 27.9133 100.047 28.14C100.274 28.3533 100.667 28.46 101.227 28.46H102.567V30H100.927C99.9139 30 99.1539 29.7667 98.6473 29.3C98.1406 28.8333 97.8873 28.0667 97.8873 27V20.54H96.4673V19.04H97.8873V16.28H99.7073V19.04H102.567V20.54H99.7073ZM114.492 19.04V30H112.672V28.38C112.326 28.94 111.839 29.38 111.212 29.7C110.599 30.0067 109.919 30.16 109.172 30.16C108.319 30.16 107.552 29.9867 106.872 29.64C106.192 29.28 105.652 28.7467 105.252 28.04C104.866 27.3333 104.672 26.4733 104.672 25.46V19.04H106.472V25.22C106.472 26.3 106.746 27.1333 107.292 27.72C107.839 28.2933 108.586 28.58 109.532 28.58C110.506 28.58 111.272 28.28 111.832 27.68C112.392 27.08 112.672 26.2067 112.672 25.06V19.04H114.492ZM116.885 24.48C116.885 23.36 117.112 22.38 117.565 21.54C118.019 20.6867 118.639 20.0267 119.425 19.56C120.225 19.0933 121.119 18.86 122.105 18.86C122.959 18.86 123.752 19.06 124.485 19.46C125.219 19.8467 125.779 20.36 126.165 21V15.2H128.005V30H126.165V27.94C125.805 28.5933 125.272 29.1333 124.565 29.56C123.859 29.9733 123.032 30.18 122.085 30.18C121.112 30.18 120.225 29.94 119.425 29.46C118.639 28.98 118.019 28.3067 117.565 27.44C117.112 26.5733 116.885 25.5867 116.885 24.48ZM126.165 24.5C126.165 23.6733 125.999 22.9533 125.665 22.34C125.332 21.7267 124.879 21.26 124.305 20.94C123.745 20.6067 123.125 20.44 122.445 20.44C121.765 20.44 121.145 20.6 120.585 20.92C120.025 21.24 119.579 21.7067 119.245 22.32C118.912 22.9333 118.745 23.6533 118.745 24.48C118.745 25.32 118.912 26.0533 119.245 26.68C119.579 27.2933 120.025 27.7667 120.585 28.1C121.145 28.42 121.765 28.58 122.445 28.58C123.125 28.58 123.745 28.42 124.305 28.1C124.879 27.7667 125.332 27.2933 125.665 26.68C125.999 26.0533 126.165 25.3267 126.165 24.5Z" fill="#344B6E"/>
<path d="M39.25 29.35C39.25 31.8335 37.2312 33.85 34.7369 33.85C32.2425 33.85 30.2237 31.8335 30.2237 29.35C30.2237 26.8665 32.2425 24.85 34.7369 24.85C37.2312 24.85 39.25 26.8665 39.25 29.35Z" stroke="#344B6E" stroke-width="1.5"/>
<path d="M39.25 14.65C39.25 17.1335 37.2312 19.15 34.7369 19.15C32.2425 19.15 30.2237 17.1335 30.2237 14.65C30.2237 12.1665 32.2425 10.15 34.7369 10.15C37.2312 10.15 39.25 12.1665 39.25 14.65Z" stroke="#344B6E" stroke-width="1.5"/>
<path d="M24.5132 6.25C24.5132 8.73351 22.4943 10.75 20 10.75C17.5057 10.75 15.4868 8.73351 15.4868 6.25C15.4868 3.76649 17.5057 1.75 20 1.75C22.4943 1.75 24.5132 3.76649 24.5132 6.25Z" stroke="#344B6E" stroke-width="1.5"/>
<path d="M9.77632 29.35C9.77632 31.8335 7.75748 33.85 5.26316 33.85C2.76884 33.85 0.75 31.8335 0.75 29.35C0.75 26.8665 2.76884 24.85 5.26316 24.85C7.75748 24.85 9.77632 26.8665 9.77632 29.35Z" stroke="#344B6E" stroke-width="1.5"/>
<path d="M9.77632 14.65C9.77632 17.1335 7.75748 19.15 5.26316 19.15C2.76884 19.15 0.75 17.1335 0.75 14.65C0.75 12.1665 2.76884 10.15 5.26316 10.15C7.75748 10.15 9.77632 12.1665 9.77632 14.65Z" stroke="#344B6E" stroke-width="1.5"/>
<path d="M24.5132 37.75C24.5132 40.2335 22.4943 42.25 20 42.25C17.5057 42.25 15.4868 40.2335 15.4868 37.75C15.4868 35.2665 17.5057 33.25 20 33.25C22.4943 33.25 24.5132 35.2665 24.5132 37.75Z" stroke="#344B6E" stroke-width="1.5"/>
</svg>
