<svg width="17" height="17" viewBox="0 0 17 17" fill="none" xmlns="http://www.w3.org/2000/svg">
<path d="M5.875 13.7119H5.5C2.5 13.7119 1 12.9641 1 9.22532V5.48654C1 2.49551 2.5 1 5.5 1H11.5C14.5 1 16 2.49551 16 5.48654V9.22532C16 12.2164 14.5 13.7119 11.5 13.7119H11.125C10.8925 13.7119 10.6675 13.824 10.525 14.011L9.4 15.5065C8.905 16.1645 8.095 16.1645 7.6 15.5065L6.475 14.011C6.355 13.8465 6.0775 13.7119 5.875 13.7119Z" stroke="#344B6E" stroke-miterlimit="10" stroke-linecap="round" stroke-linejoin="round"/>
<path d="M11.4973 7.75H11.5041" stroke="#344B6E" stroke-width="1.2" stroke-linecap="round" stroke-linejoin="round"/>
<path d="M8.49661 7.75H8.50335" stroke="#344B6E" stroke-width="1.2" stroke-linecap="round" stroke-linejoin="round"/>
<path d="M5.49588 7.75H5.50262" stroke="#344B6E" stroke-width="1.2" stroke-linecap="round" stroke-linejoin="round"/>
</svg>
