<svg width="17" height="17" viewBox="0 0 17 17" fill="none" xmlns="http://www.w3.org/2000/svg">
<path d="M8.59004 9.08499C8.53754 9.07749 8.47004 9.07749 8.41004 9.08499C7.09004 9.03999 6.04004 7.95999 6.04004 6.63249C6.04004 5.27499 7.13504 4.17249 8.50004 4.17249C9.85754 4.17249 10.96 5.27499 10.96 6.63249C10.9525 7.95999 9.91004 9.03999 8.59004 9.08499Z" stroke="#344B6E" stroke-linecap="round" stroke-linejoin="round"/>
<path d="M13.555 14.035C12.22 15.2575 10.45 16 8.50001 16C6.55001 16 4.78001 15.2575 3.44501 14.035C3.52001 13.33 3.97001 12.64 4.77251 12.1C6.82751 10.735 10.1875 10.735 12.2275 12.1C13.03 12.64 13.48 13.33 13.555 14.035Z" stroke="#344B6E" stroke-linecap="round" stroke-linejoin="round"/>
<path d="M8.5 16C12.6421 16 16 12.6421 16 8.5C16 4.35786 12.6421 1 8.5 1C4.35786 1 1 4.35786 1 8.5C1 12.6421 4.35786 16 8.5 16Z" stroke="#344B6E" stroke-linecap="round" stroke-linejoin="round"/>
</svg>
